# xmcd CD database file
#
# Track frame offsets:
#	187
#	17917
#	36160
#	54170
#	72557
#	81517
#	100570
#	115335
#	133622
#	155142
#	176222
#
# Disc length: 2512 seconds
#
# Revision: 0
# Processed by: cddbd v1.5PL3 Copyright (c) Steve Scherf et al.
# Submitted via: CDex 1.50
#
DISCID=9809ce0b
DTITLE=YAPOOS - YAPOOS BEST
DYEAR=1900
DGENRE=Japanese Pop
TTITLE0=バーバラ・セクサロイド
TTITLE1=キスを
TTITLE2=肉屋のように
TTITLE3=ラブ・クローン
TTITLE4=労働慰安唱歌
TTITLE5=ロリータ108号
TTITLE6=私は孤高で豪華
TTITLE7=棒状の罪
TTITLE8=森に棲む
TTITLE9=大天使のように
TTITLE10=セシルカット
EXTD=
EXTT0=
EXTT1=
EXTT2=
EXTT3=
EXTT4=
EXTT5=
EXTT6=
EXTT7=
EXTT8=
EXTT9=
EXTT10=
PLAYORDER=
